<?xml version='1.0' encoding='UTF-8' ?>
<svg xmlns='http://www.w3.org/2000/svg' version='1.1' width='3166' height='2568px'>
<circle cx="1583" cy="50" r="40" stroke="black" stroke-width="3" fill="red" />
<circle cx="1583" cy="50" r="30" stroke="black" stroke-width="3" fill="none" />
<text x="1578" y="55">5</text>
<line x1="1583" y1="90" x2="1433" y2="160" style="stroke:rgb(0,0,0);stroke-width:2" />
<circle cx="1433" cy="200" r="40" stroke="black" stroke-width="3" fill="red" />
<circle cx="1433" cy="200" r="30" stroke="black" stroke-width="3" fill="none" />
<text x="1428" y="205">5</text>
<line x1="1433" y1="240" x2="1283" y2="310" style="stroke:rgb(0,0,0);stroke-width:2" />
<circle cx="1283" cy="350" r="40" stroke="black" stroke-width="3" fill="red" />
<circle cx="1283" cy="350" r="30" stroke="black" stroke-width="3" fill="none" />
<text x="1278" y="355">4</text>
<line x1="1283" y1="390" x2="1133" y2="460" style="stroke:rgb(0,0,0);stroke-width:2" />
<circle cx="1133" cy="500" r="40" stroke="black" stroke-width="3" fill="red" />
<circle cx="1133" cy="500" r="30" stroke="black" stroke-width="3" fill="none" />
<text x="1128" y="505">2</text>
<line x1="1133" y1="540" x2="983" y2="610" style="stroke:rgb(0,0,0);stroke-width:2" />
<circle cx="983" cy="650" r="40" stroke="black" stroke-width="3" fill="red" />
<circle cx="983" cy="650" r="30" stroke="black" stroke-width="3" fill="none" />
<text x="978" y="655">1</text>
<line x1="983" y1="690" x2="923" y2="760" style="stroke:rgb(0,0,0);stroke-width:2" />
<rect x="883" y="760" width="80" height="80" style="fill:none; stroke:black; stroke-width:3"/><text x="918" y="795">-2</text>
<text text-anchor="middle" x="923" y="810">menos dos</text>
<line x1="983" y1="690" x2="1043" y2="760" style="stroke:rgb(0,0,0);stroke-width:2" />
<rect x="1003" y="760" width="80" height="80" style="fill:none; stroke:black; stroke-width:3"/><text x="1038" y="795">1</text>
<text text-anchor="middle" x="1043" y="810">uno</text>
<line x1="1133" y1="540" x2="1283" y2="610" style="stroke:rgb(0,0,0);stroke-width:2" />
<circle cx="1283" cy="650" r="40" stroke="black" stroke-width="3" fill="red" />
<circle cx="1283" cy="650" r="30" stroke="black" stroke-width="3" fill="none" />
<text x="1278" y="655">2</text>
<line x1="1283" y1="690" x2="1223" y2="760" style="stroke:rgb(0,0,0);stroke-width:2" />
<rect x="1183" y="760" width="80" height="80" style="fill:none; stroke:black; stroke-width:3"/><text x="1218" y="795">2</text>
<text text-anchor="middle" x="1223" y="810">dos</text>
<line x1="1283" y1="690" x2="1343" y2="760" style="stroke:rgb(0,0,0);stroke-width:2" />
<rect x="1303" y="760" width="80" height="80" style="fill:none; stroke:black; stroke-width:3"/><text x="1338" y="795">3</text>
<text text-anchor="middle" x="1343" y="810">tres</text>
<line x1="1283" y1="390" x2="1343" y2="460" style="stroke:rgb(0,0,0);stroke-width:2" />
<rect x="1303" y="460" width="80" height="80" style="fill:none; stroke:black; stroke-width:3"/><text x="1338" y="495">4</text>
<text text-anchor="middle" x="1343" y="510">cuatro</text>
<line x1="1433" y1="240" x2="1493" y2="310" style="stroke:rgb(0,0,0);stroke-width:2" />
<rect x="1453" y="310" width="80" height="80" style="fill:none; stroke:black; stroke-width:3"/><text x="1488" y="345">5</text>
<text text-anchor="middle" x="1493" y="360">cinco</text>
<line x1="1583" y1="90" x2="1733" y2="160" style="stroke:rgb(0,0,0);stroke-width:2" />
<circle cx="1733" cy="200" r="40" stroke="black" stroke-width="3" fill="red" />
<circle cx="1733" cy="200" r="30" stroke="black" stroke-width="3" fill="none" />
<text x="1728" y="205">6</text>
<line x1="1733" y1="240" x2="1673" y2="310" style="stroke:rgb(0,0,0);stroke-width:2" />
<rect x="1633" y="310" width="80" height="80" style="fill:none; stroke:black; stroke-width:3"/><text x="1668" y="345">6</text>
<text text-anchor="middle" x="1673" y="360">seis</text>
<line x1="1733" y1="240" x2="1883" y2="310" style="stroke:rgb(0,0,0);stroke-width:2" />
<circle cx="1883" cy="350" r="40" stroke="black" stroke-width="3" fill="red" />
<circle cx="1883" cy="350" r="30" stroke="black" stroke-width="3" fill="none" />
<text x="1878" y="355">7</text>
<line x1="1883" y1="390" x2="1823" y2="460" style="stroke:rgb(0,0,0);stroke-width:2" />
<rect x="1783" y="460" width="80" height="80" style="fill:none; stroke:black; stroke-width:3"/><text x="1818" y="495">7</text>
<text text-anchor="middle" x="1823" y="510">siete</text>
<line x1="1883" y1="390" x2="2033" y2="460" style="stroke:rgb(0,0,0);stroke-width:2" />
<circle cx="2033" cy="500" r="40" stroke="black" stroke-width="3" fill="red" />
<circle cx="2033" cy="500" r="30" stroke="black" stroke-width="3" fill="none" />
<text x="2028" y="505">8</text>
<line x1="2033" y1="540" x2="1973" y2="610" style="stroke:rgb(0,0,0);stroke-width:2" />
<rect x="1933" y="610" width="80" height="80" style="fill:none; stroke:black; stroke-width:3"/><text x="1968" y="645">8</text>
<text text-anchor="middle" x="1973" y="660">ocho</text>
<line x1="2033" y1="540" x2="2093" y2="610" style="stroke:rgb(0,0,0);stroke-width:2" />
<rect x="2053" y="610" width="80" height="80" style="fill:none; stroke:black; stroke-width:3"/><text x="2088" y="645">9</text>
<text text-anchor="middle" x="2093" y="660">nueve</text>
</svg>