<?xml version='1.0' encoding='UTF-8' ?>
<svg xmlns='http://www.w3.org/2000/svg' version='1.1' width='1966' height='1368px'>
<circle cx="983" cy="50" r="40" stroke="black" stroke-width="3" fill="red" />
<circle cx="983" cy="50" r="30" stroke="black" stroke-width="3" fill="none" />
<text text-anchor="middle" x="983" y="55">5</text>
<line x1="983" y1="90" x2="833" y2="160" style="stroke:rgb(0,0,0);stroke-width:2" />
<circle cx="833" cy="200" r="40" stroke="black" stroke-width="3" fill="red" />
<circle cx="833" cy="200" r="30" stroke="black" stroke-width="3" fill="none" />
<text text-anchor="middle" x="833" y="205">5</text>
<line x1="833" y1="240" x2="683" y2="310" style="stroke:rgb(0,0,0);stroke-width:2" />
<circle cx="683" cy="350" r="40" stroke="black" stroke-width="3" fill="red" />
<circle cx="683" cy="350" r="30" stroke="black" stroke-width="3" fill="none" />
<text text-anchor="middle" x="683" y="355">4</text>
<line x1="683" y1="390" x2="533" y2="460" style="stroke:rgb(0,0,0);stroke-width:2" />
<circle cx="533" cy="500" r="40" stroke="black" stroke-width="3" fill="red" />
<circle cx="533" cy="500" r="30" stroke="black" stroke-width="3" fill="none" />
<text text-anchor="middle" x="533" y="505">2</text>
<line x1="533" y1="540" x2="383" y2="610" style="stroke:rgb(0,0,0);stroke-width:2" />
<circle cx="383" cy="650" r="40" stroke="black" stroke-width="3" fill="red" />
<circle cx="383" cy="650" r="30" stroke="black" stroke-width="3" fill="none" />
<text text-anchor="middle" x="383" y="655">1</text>
<line x1="383" y1="690" x2="323" y2="760" style="stroke:rgb(0,0,0);stroke-width:2" />
<rect x="283" y="760" width="80" height="80" style="fill:none; stroke:black; stroke-width:3"/><text text-anchor="middle" x="323" y="795">-2</text>
<text text-anchor="middle" x="323" y="810">menos dos</text>
<line x1="383" y1="690" x2="443" y2="760" style="stroke:rgb(0,0,0);stroke-width:2" />
<rect x="403" y="760" width="80" height="80" style="fill:none; stroke:black; stroke-width:3"/><text text-anchor="middle" x="443" y="795">1</text>
<text text-anchor="middle" x="443" y="810">uno</text>
<line x1="533" y1="540" x2="683" y2="610" style="stroke:rgb(0,0,0);stroke-width:2" />
<circle cx="683" cy="650" r="40" stroke="black" stroke-width="3" fill="red" />
<circle cx="683" cy="650" r="30" stroke="black" stroke-width="3" fill="none" />
<text text-anchor="middle" x="683" y="655">2</text>
<line x1="683" y1="690" x2="623" y2="760" style="stroke:rgb(0,0,0);stroke-width:2" />
<rect x="583" y="760" width="80" height="80" style="fill:none; stroke:black; stroke-width:3"/><text text-anchor="middle" x="623" y="795">2</text>
<text text-anchor="middle" x="623" y="810">dos</text>
<line x1="683" y1="690" x2="743" y2="760" style="stroke:rgb(0,0,0);stroke-width:2" />
<rect x="703" y="760" width="80" height="80" style="fill:none; stroke:black; stroke-width:3"/><text text-anchor="middle" x="743" y="795">3</text>
<text text-anchor="middle" x="743" y="810">tres</text>
<line x1="683" y1="390" x2="743" y2="460" style="stroke:rgb(0,0,0);stroke-width:2" />
<rect x="703" y="460" width="80" height="80" style="fill:none; stroke:black; stroke-width:3"/><text text-anchor="middle" x="743" y="495">4</text>
<text text-anchor="middle" x="743" y="510">cuatro</text>
<line x1="833" y1="240" x2="893" y2="310" style="stroke:rgb(0,0,0);stroke-width:2" />
<rect x="853" y="310" width="80" height="80" style="fill:none; stroke:black; stroke-width:3"/><text text-anchor="middle" x="893" y="345">5</text>
<text text-anchor="middle" x="893" y="360">cinco</text>
<line x1="983" y1="90" x2="1133" y2="160" style="stroke:rgb(0,0,0);stroke-width:2" />
<circle cx="1133" cy="200" r="40" stroke="black" stroke-width="3" fill="red" />
<circle cx="1133" cy="200" r="30" stroke="black" stroke-width="3" fill="none" />
<text text-anchor="middle" x="1133" y="205">6</text>
<line x1="1133" y1="240" x2="1073" y2="310" style="stroke:rgb(0,0,0);stroke-width:2" />
<rect x="1033" y="310" width="80" height="80" style="fill:none; stroke:black; stroke-width:3"/><text text-anchor="middle" x="1073" y="345">6</text>
<text text-anchor="middle" x="1073" y="360">seis</text>
<line x1="1133" y1="240" x2="1283" y2="310" style="stroke:rgb(0,0,0);stroke-width:2" />
<circle cx="1283" cy="350" r="40" stroke="black" stroke-width="3" fill="red" />
<circle cx="1283" cy="350" r="30" stroke="black" stroke-width="3" fill="none" />
<text text-anchor="middle" x="1283" y="355">7</text>
<line x1="1283" y1="390" x2="1223" y2="460" style="stroke:rgb(0,0,0);stroke-width:2" />
<rect x="1183" y="460" width="80" height="80" style="fill:none; stroke:black; stroke-width:3"/><text text-anchor="middle" x="1223" y="495">7</text>
<text text-anchor="middle" x="1223" y="510">siete</text>
<line x1="1283" y1="390" x2="1433" y2="460" style="stroke:rgb(0,0,0);stroke-width:2" />
<circle cx="1433" cy="500" r="40" stroke="black" stroke-width="3" fill="red" />
<circle cx="1433" cy="500" r="30" stroke="black" stroke-width="3" fill="none" />
<text text-anchor="middle" x="1433" y="505">8</text>
<line x1="1433" y1="540" x2="1373" y2="610" style="stroke:rgb(0,0,0);stroke-width:2" />
<rect x="1333" y="610" width="80" height="80" style="fill:none; stroke:black; stroke-width:3"/><text text-anchor="middle" x="1373" y="645">8</text>
<text text-anchor="middle" x="1373" y="660">ocho</text>
<line x1="1433" y1="540" x2="1583" y2="610" style="stroke:rgb(0,0,0);stroke-width:2" />
<circle cx="1583" cy="650" r="40" stroke="black" stroke-width="3" fill="red" />
<circle cx="1583" cy="650" r="30" stroke="black" stroke-width="3" fill="none" />
<text text-anchor="middle" x="1583" y="655">9</text>
<line x1="1583" y1="690" x2="1523" y2="760" style="stroke:rgb(0,0,0);stroke-width:2" />
<rect x="1483" y="760" width="80" height="80" style="fill:none; stroke:black; stroke-width:3"/><text text-anchor="middle" x="1523" y="795">9</text>
<text text-anchor="middle" x="1523" y="810">nueve</text>
<line x1="1583" y1="690" x2="1733" y2="760" style="stroke:rgb(0,0,0);stroke-width:2" />
<circle cx="1733" cy="800" r="40" stroke="black" stroke-width="3" fill="red" />
<circle cx="1733" cy="800" r="30" stroke="black" stroke-width="3" fill="none" />
<text text-anchor="middle" x="1733" y="805">20</text>
<line x1="1733" y1="840" x2="1673" y2="910" style="stroke:rgb(0,0,0);stroke-width:2" />
<rect x="1633" y="910" width="80" height="80" style="fill:none; stroke:black; stroke-width:3"/><text text-anchor="middle" x="1673" y="945">20</text>
<text text-anchor="middle" x="1673" y="960">veinte</text>
<line x1="1733" y1="840" x2="1793" y2="910" style="stroke:rgb(0,0,0);stroke-width:2" />
<rect x="1753" y="910" width="80" height="80" style="fill:none; stroke:black; stroke-width:3"/><text text-anchor="middle" x="1793" y="945">21</text>
<text text-anchor="middle" x="1793" y="960">veintiuno</text>
</svg>