<?xml version='1.0' encoding='UTF-8' ?>
<svg xmlns='http://www.w3.org/2000/svg' version='1.1' width='1575' height='825px'>
<circle cx="787" cy="50" r="40" stroke="black" stroke-width="3" fill="none" />
<text text-anchor="middle" x="787" y="55">3</text>
<line x1="787" y1="90" x2="547" y2="250" style="stroke:rgb(0,0,0);stroke-width:2" />
<circle cx="547" cy="290" r="40" stroke="black" stroke-width="3" fill="none" />
<text text-anchor="middle" x="547" y="295">1</text>
<line x1="547" y1="330" x2="397" y2="400" style="stroke:rgb(0,0,0);stroke-width:2" />
<circle cx="397" cy="440" r="40" stroke="black" stroke-width="3" fill="red" />
<circle cx="397" cy="440" r="30" stroke="black" stroke-width="3" fill="none" />
<text text-anchor="middle" x="397" y="445">-45</text>
<line x1="397" y1="480" x2="337" y2="550" style="stroke:rgb(0,0,0);stroke-width:2" />
<rect x="297" y="550" width="80" height="80" style="fill:none; stroke:black; stroke-width:3"/><text text-anchor="middle" x="337" y="585">-45</text>
<text text-anchor="middle" x="337" y="600">e</text>
<line x1="397" y1="480" x2="457" y2="550" style="stroke:rgb(0,0,0);stroke-width:2" />
<rect x="417" y="550" width="80" height="80" style="fill:none; stroke:black; stroke-width:3"/><text text-anchor="middle" x="457" y="585">1</text>
<text text-anchor="middle" x="457" y="600">d</text>
<line x1="547" y1="330" x2="607" y2="400" style="stroke:rgb(0,0,0);stroke-width:2" />
<rect x="567" y="400" width="80" height="80" style="fill:none; stroke:black; stroke-width:3"/><text text-anchor="middle" x="607" y="435">3</text>
<text text-anchor="middle" x="607" y="450">b</text>
<line x1="787" y1="90" x2="1027" y2="250" style="stroke:rgb(0,0,0);stroke-width:2" />
<circle cx="1027" cy="290" r="40" stroke="black" stroke-width="3" fill="none" />
<text text-anchor="middle" x="1027" y="295">4</text>
<line x1="1027" y1="330" x2="967" y2="400" style="stroke:rgb(0,0,0);stroke-width:2" />
<rect x="927" y="400" width="80" height="80" style="fill:none; stroke:black; stroke-width:3"/><text text-anchor="middle" x="967" y="435">4</text>
<text text-anchor="middle" x="967" y="450">a</text>
<line x1="1027" y1="330" x2="1087" y2="400" style="stroke:rgb(0,0,0);stroke-width:2" />
<rect x="1047" y="400" width="80" height="80" style="fill:none; stroke:black; stroke-width:3"/><text text-anchor="middle" x="1087" y="435">7</text>
<text text-anchor="middle" x="1087" y="450">c</text>
<text text-anchor="start" x="10" y="20">Paso 5: </text><text text-anchor="start" x="10" y="40">Cambio color raíz</text><text text-anchor="start" x="10" y="70">Insertar hoja</text></svg>