<?xml version='1.0' encoding='UTF-8' ?>
<svg xmlns='http://www.w3.org/2000/svg' version='1.1' width='1625' height='875px'>
<circle cx="812" cy="50" r="40" stroke="black" stroke-width="3" fill="none" />
<text text-anchor="middle" x="812" y="55">4</text>
<line x1="812" y1="90" x2="552" y2="270" style="stroke:rgb(0,0,0);stroke-width:2" />
<circle cx="552" cy="310" r="40" stroke="black" stroke-width="3" fill="red" />
<circle cx="552" cy="310" r="30" stroke="black" stroke-width="3" fill="none" />
<text text-anchor="middle" x="552" y="315">2</text>
<line x1="552" y1="350" x2="402" y2="420" style="stroke:rgb(0,0,0);stroke-width:2" />
<circle cx="402" cy="460" r="40" stroke="black" stroke-width="3" fill="none" />
<text text-anchor="middle" x="402" y="465">1</text>
<line x1="402" y1="500" x2="252" y2="570" style="stroke:rgb(0,0,0);stroke-width:2" />
<circle cx="252" cy="610" r="40" stroke="black" stroke-width="3" fill="red" />
<circle cx="252" cy="610" r="30" stroke="black" stroke-width="3" fill="none" />
<text text-anchor="middle" x="252" y="615">-1</text>
<line x1="252" y1="650" x2="192" y2="720" style="stroke:rgb(0,0,0);stroke-width:2" />
<rect x="152" y="720" width="80" height="80" style="fill:none; stroke:black; stroke-width:3"/><text text-anchor="middle" x="192" y="755">-1</text>
<text text-anchor="middle" x="192" y="770">g</text>
<line x1="252" y1="650" x2="312" y2="720" style="stroke:rgb(0,0,0);stroke-width:2" />
<rect x="272" y="720" width="80" height="80" style="fill:none; stroke:black; stroke-width:3"/><text text-anchor="middle" x="312" y="755">1</text>
<text text-anchor="middle" x="312" y="770">b</text>
<line x1="402" y1="500" x2="462" y2="570" style="stroke:rgb(0,0,0);stroke-width:2" />
<rect x="422" y="570" width="80" height="80" style="fill:none; stroke:black; stroke-width:3"/><text text-anchor="middle" x="462" y="605">2</text>
<text text-anchor="middle" x="462" y="620">f</text>
<line x1="552" y1="350" x2="702" y2="420" style="stroke:rgb(0,0,0);stroke-width:2" />
<circle cx="702" cy="460" r="40" stroke="black" stroke-width="3" fill="none" />
<text text-anchor="middle" x="702" y="465">3</text>
<line x1="702" y1="500" x2="642" y2="570" style="stroke:rgb(0,0,0);stroke-width:2" />
<rect x="602" y="570" width="80" height="80" style="fill:none; stroke:black; stroke-width:3"/><text text-anchor="middle" x="642" y="605">3</text>
<text text-anchor="middle" x="642" y="620">e</text>
<line x1="702" y1="500" x2="762" y2="570" style="stroke:rgb(0,0,0);stroke-width:2" />
<rect x="722" y="570" width="80" height="80" style="fill:none; stroke:black; stroke-width:3"/><text text-anchor="middle" x="762" y="605">4</text>
<text text-anchor="middle" x="762" y="620">a</text>
<line x1="812" y1="90" x2="1072" y2="270" style="stroke:rgb(0,0,0);stroke-width:2" />
<circle cx="1072" cy="310" r="40" stroke="black" stroke-width="3" fill="none" />
<text text-anchor="middle" x="1072" y="315">5</text>
<line x1="1072" y1="350" x2="1012" y2="420" style="stroke:rgb(0,0,0);stroke-width:2" />
<rect x="972" y="420" width="80" height="80" style="fill:none; stroke:black; stroke-width:3"/><text text-anchor="middle" x="1012" y="455">5</text>
<text text-anchor="middle" x="1012" y="470">d</text>
<line x1="1072" y1="350" x2="1132" y2="420" style="stroke:rgb(0,0,0);stroke-width:2" />
<rect x="1092" y="420" width="80" height="80" style="fill:none; stroke:black; stroke-width:3"/><text text-anchor="middle" x="1132" y="455">7</text>
<text text-anchor="middle" x="1132" y="470">c</text>
<text text-anchor="start" x="10" y="20">Paso 7: </text><text text-anchor="start" x="10" y="40">Insertar hoja</text></svg>