<?xml version='1.0' encoding='UTF-8' ?>
<svg xmlns='http://www.w3.org/2000/svg' version='1.1' width='1625' height='875px'>
<circle cx="812" cy="50" r="40" stroke="black" stroke-width="3" fill="none" />
<text text-anchor="middle" x="812" y="55">3</text>
<line x1="812" y1="90" x2="552" y2="270" style="stroke:rgb(0,0,0);stroke-width:2" />
<circle cx="552" cy="310" r="40" stroke="black" stroke-width="3" fill="red" />
<circle cx="552" cy="310" r="30" stroke="black" stroke-width="3" fill="none" />
<text text-anchor="middle" x="552" y="315">-1</text>
<line x1="552" y1="350" x2="402" y2="420" style="stroke:rgb(0,0,0);stroke-width:2" />
<circle cx="402" cy="460" r="40" stroke="black" stroke-width="3" fill="none" />
<text text-anchor="middle" x="402" y="465">-45</text>
<line x1="402" y1="500" x2="342" y2="570" style="stroke:rgb(0,0,0);stroke-width:2" />
<rect x="302" y="570" width="80" height="80" style="fill:none; stroke:black; stroke-width:3"/><text text-anchor="middle" x="342" y="605">-45</text>
<text text-anchor="middle" x="342" y="620">e</text>
<line x1="402" y1="500" x2="462" y2="570" style="stroke:rgb(0,0,0);stroke-width:2" />
<rect x="422" y="570" width="80" height="80" style="fill:none; stroke:black; stroke-width:3"/><text text-anchor="middle" x="462" y="605">-1</text>
<text text-anchor="middle" x="462" y="620">f</text>
<line x1="552" y1="350" x2="702" y2="420" style="stroke:rgb(0,0,0);stroke-width:2" />
<circle cx="702" cy="460" r="40" stroke="black" stroke-width="3" fill="none" />
<text text-anchor="middle" x="702" y="465">1</text>
<line x1="702" y1="500" x2="642" y2="570" style="stroke:rgb(0,0,0);stroke-width:2" />
<rect x="602" y="570" width="80" height="80" style="fill:none; stroke:black; stroke-width:3"/><text text-anchor="middle" x="642" y="605">1</text>
<text text-anchor="middle" x="642" y="620">d</text>
<line x1="702" y1="500" x2="762" y2="570" style="stroke:rgb(0,0,0);stroke-width:2" />
<rect x="722" y="570" width="80" height="80" style="fill:none; stroke:black; stroke-width:3"/><text text-anchor="middle" x="762" y="605">3</text>
<text text-anchor="middle" x="762" y="620">b</text>
<line x1="812" y1="90" x2="1072" y2="270" style="stroke:rgb(0,0,0);stroke-width:2" />
<circle cx="1072" cy="310" r="40" stroke="black" stroke-width="3" fill="none" />
<text text-anchor="middle" x="1072" y="315">4</text>
<line x1="1072" y1="350" x2="1012" y2="420" style="stroke:rgb(0,0,0);stroke-width:2" />
<rect x="972" y="420" width="80" height="80" style="fill:none; stroke:black; stroke-width:3"/><text text-anchor="middle" x="1012" y="455">4</text>
<text text-anchor="middle" x="1012" y="470">a</text>
<line x1="1072" y1="350" x2="1132" y2="420" style="stroke:rgb(0,0,0);stroke-width:2" />
<rect x="1092" y="420" width="80" height="80" style="fill:none; stroke:black; stroke-width:3"/><text text-anchor="middle" x="1132" y="455">7</text>
<text text-anchor="middle" x="1132" y="470">c</text>
<text text-anchor="start" x="10" y="20">Paso 6: </text><text text-anchor="start" x="10" y="40">Rotación simple derecha</text><text text-anchor="start" x="10" y="70">Recoloreo</text><text text-anchor="start" x="10" y="100">Rotación doble derecha</text><text text-anchor="start" x="10" y="130">Color flip</text><text text-anchor="start" x="10" y="160">Insertar hoja</text></svg>