<?xml version='1.0' encoding='UTF-8' ?>
<svg xmlns='http://www.w3.org/2000/svg' version='1.1' width='1350' height='600px'>
<circle cx="675" cy="50" r="40" stroke="black" stroke-width="3" fill="none" />
<text text-anchor="middle" x="675" y="55">20</text>
<line x1="675" y1="90" x2="565" y2="210" style="stroke:rgb(0,0,0);stroke-width:2" />
<rect x="525" y="210" width="80" height="80" style="fill:none; stroke:black; stroke-width:3"/><text text-anchor="middle" x="565" y="245">20</text>
<text text-anchor="middle" x="565" y="260">veinte</text>
<line x1="675" y1="90" x2="875" y2="210" style="stroke:rgb(0,0,0);stroke-width:2" />
<circle cx="875" cy="250" r="40" stroke="black" stroke-width="3" fill="red" />
<circle cx="875" cy="250" r="30" stroke="black" stroke-width="3" fill="none" />
<text text-anchor="middle" x="875" y="255">100</text>
<line x1="875" y1="290" x2="815" y2="360" style="stroke:rgb(0,0,0);stroke-width:2" />
<rect x="775" y="360" width="80" height="80" style="fill:none; stroke:black; stroke-width:3"/><text text-anchor="middle" x="815" y="395">100</text>
<text text-anchor="middle" x="815" y="410">cien</text>
<line x1="875" y1="290" x2="935" y2="360" style="stroke:rgb(0,0,0);stroke-width:2" />
<rect x="895" y="360" width="80" height="80" style="fill:none; stroke:black; stroke-width:3"/><text text-anchor="middle" x="935" y="395">160</text>
<text text-anchor="middle" x="935" y="410">cientsec</text>
<text text-anchor="start" x="10" y="20">Paso 3: </text><text text-anchor="start" x="10" y="40">Insertando ( 160, cientsec )</text><text text-anchor="start" x="10" y="70">Cambio color raíz</text><text text-anchor="start" x="10" y="100">Inserción hoja</text></svg>