<?xml version='1.0' encoding='UTF-8' ?>
<svg xmlns='http://www.w3.org/2000/svg' version='1.1' width='1725' height='975px'>
<circle cx="862" cy="50" r="40" stroke="black" stroke-width="3" fill="red" />
<circle cx="862" cy="50" r="30" stroke="black" stroke-width="3" fill="none" />
<text text-anchor="middle" x="862" y="55">100</text>
<line x1="862" y1="90" x2="562" y2="310" style="stroke:rgb(0,0,0);stroke-width:2" />
<circle cx="562" cy="350" r="40" stroke="black" stroke-width="3" fill="none" />
<text text-anchor="middle" x="562" y="355">90</text>
<line x1="562" y1="390" x2="412" y2="460" style="stroke:rgb(0,0,0);stroke-width:2" />
<circle cx="412" cy="500" r="40" stroke="black" stroke-width="3" fill="none" />
<text text-anchor="middle" x="412" y="505">20</text>
<line x1="412" y1="540" x2="352" y2="610" style="stroke:rgb(0,0,0);stroke-width:2" />
<rect x="312" y="610" width="80" height="80" style="fill:none; stroke:black; stroke-width:3"/><text text-anchor="middle" x="352" y="645">20</text>
<text text-anchor="middle" x="352" y="660">veinte</text>
<line x1="412" y1="540" x2="472" y2="610" style="stroke:rgb(0,0,0);stroke-width:2" />
<rect x="432" y="610" width="80" height="80" style="fill:none; stroke:black; stroke-width:3"/><text text-anchor="middle" x="472" y="645">90</text>
<text text-anchor="middle" x="472" y="660">noventa</text>
<line x1="562" y1="390" x2="712" y2="460" style="stroke:rgb(0,0,0);stroke-width:2" />
<circle cx="712" cy="500" r="40" stroke="black" stroke-width="3" fill="none" />
<text text-anchor="middle" x="712" y="505">99</text>
<line x1="712" y1="540" x2="652" y2="610" style="stroke:rgb(0,0,0);stroke-width:2" />
<rect x="612" y="610" width="80" height="80" style="fill:none; stroke:black; stroke-width:3"/><text text-anchor="middle" x="652" y="645">99</text>
<text text-anchor="middle" x="652" y="660">nuevenueve</text>
<line x1="712" y1="540" x2="772" y2="610" style="stroke:rgb(0,0,0);stroke-width:2" />
<rect x="732" y="610" width="80" height="80" style="fill:none; stroke:black; stroke-width:3"/><text text-anchor="middle" x="772" y="645">100</text>
<text text-anchor="middle" x="772" y="660">cien</text>
<line x1="862" y1="90" x2="1162" y2="310" style="stroke:rgb(0,0,0);stroke-width:2" />
<circle cx="1162" cy="350" r="40" stroke="black" stroke-width="3" fill="none" />
<text text-anchor="middle" x="1162" y="355">300</text>
<line x1="1162" y1="390" x2="1012" y2="460" style="stroke:rgb(0,0,0);stroke-width:2" />
<circle cx="1012" cy="500" r="40" stroke="black" stroke-width="3" fill="none" />
<text text-anchor="middle" x="1012" y="505">160</text>
<line x1="1012" y1="540" x2="952" y2="610" style="stroke:rgb(0,0,0);stroke-width:2" />
<rect x="912" y="610" width="80" height="80" style="fill:none; stroke:black; stroke-width:3"/><text text-anchor="middle" x="952" y="645">160</text>
<text text-anchor="middle" x="952" y="660">cientsec</text>
<line x1="1012" y1="540" x2="1072" y2="610" style="stroke:rgb(0,0,0);stroke-width:2" />
<rect x="1032" y="610" width="80" height="80" style="fill:none; stroke:black; stroke-width:3"/><text text-anchor="middle" x="1072" y="645">300</text>
<text text-anchor="middle" x="1072" y="660">trescientos</text>
<line x1="1162" y1="390" x2="1312" y2="460" style="stroke:rgb(0,0,0);stroke-width:2" />
<circle cx="1312" cy="500" r="40" stroke="black" stroke-width="3" fill="none" />
<text text-anchor="middle" x="1312" y="505">350</text>
<line x1="1312" y1="540" x2="1252" y2="610" style="stroke:rgb(0,0,0);stroke-width:2" />
<rect x="1212" y="610" width="80" height="80" style="fill:none; stroke:black; stroke-width:3"/><text text-anchor="middle" x="1252" y="645">350</text>
<text text-anchor="middle" x="1252" y="660">trescinc</text>
<line x1="1312" y1="540" x2="1372" y2="610" style="stroke:rgb(0,0,0);stroke-width:2" />
<rect x="1332" y="610" width="80" height="80" style="fill:none; stroke:black; stroke-width:3"/><text text-anchor="middle" x="1372" y="645">500</text>
<text text-anchor="middle" x="1372" y="660">quinientos</text>
<text text-anchor="start" x="10" y="20">Paso 8: </text><text text-anchor="start" x="10" y="40">Insertando ( 90, noventa )</text><text text-anchor="start" x="10" y="70">Rotación doble izquierda</text><text text-anchor="start" x="10" y="100">Recoloreo</text><text text-anchor="start" x="10" y="130">Color flip</text><text text-anchor="start" x="10" y="160">Color flip</text><text text-anchor="start" x="10" y="190">Inserción hoja</text></svg>