<?xml version='1.0' encoding='UTF-8' ?>
<svg xmlns='http://www.w3.org/2000/svg' version='1.1' width='1525' height='775px'>
<circle cx="762" cy="50" r="40" stroke="black" stroke-width="3" fill="red" />
<circle cx="762" cy="50" r="30" stroke="black" stroke-width="3" fill="none" />
<text text-anchor="middle" x="762" y="55">100</text>
<line x1="762" y1="90" x2="542" y2="230" style="stroke:rgb(0,0,0);stroke-width:2" />
<circle cx="542" cy="270" r="40" stroke="black" stroke-width="3" fill="none" />
<text text-anchor="middle" x="542" y="275">20</text>
<line x1="542" y1="310" x2="482" y2="380" style="stroke:rgb(0,0,0);stroke-width:2" />
<rect x="442" y="380" width="80" height="80" style="fill:none; stroke:black; stroke-width:3"/><text text-anchor="middle" x="482" y="415">20</text>
<text text-anchor="middle" x="482" y="430">veinte</text>
<line x1="542" y1="310" x2="602" y2="380" style="stroke:rgb(0,0,0);stroke-width:2" />
<rect x="562" y="380" width="80" height="80" style="fill:none; stroke:black; stroke-width:3"/><text text-anchor="middle" x="602" y="415">100</text>
<text text-anchor="middle" x="602" y="430">cien</text>
<line x1="762" y1="90" x2="982" y2="230" style="stroke:rgb(0,0,0);stroke-width:2" />
<circle cx="982" cy="270" r="40" stroke="black" stroke-width="3" fill="none" />
<text text-anchor="middle" x="982" y="275">160</text>
<line x1="982" y1="310" x2="922" y2="380" style="stroke:rgb(0,0,0);stroke-width:2" />
<rect x="882" y="380" width="80" height="80" style="fill:none; stroke:black; stroke-width:3"/><text text-anchor="middle" x="922" y="415">160</text>
<text text-anchor="middle" x="922" y="430">cientsec</text>
<line x1="982" y1="310" x2="1042" y2="380" style="stroke:rgb(0,0,0);stroke-width:2" />
<rect x="1002" y="380" width="80" height="80" style="fill:none; stroke:black; stroke-width:3"/><text text-anchor="middle" x="1042" y="415">300</text>
<text text-anchor="middle" x="1042" y="430">trescientos</text>
<text text-anchor="start" x="10" y="20">Paso 4: </text><text text-anchor="start" x="10" y="40">Insertando ( 300, trescientos )</text><text text-anchor="start" x="10" y="70">Rotación simple izquierda</text><text text-anchor="start" x="10" y="100">Recoloreo</text><text text-anchor="start" x="10" y="130">Color flip</text><text text-anchor="start" x="10" y="160">Inserción hoja</text></svg>