<?xml version='1.0' encoding='UTF-8' ?>
<svg xmlns='http://www.w3.org/2000/svg' version='1.1' width='1625' height='875px'>
<circle cx="812" cy="50" r="40" stroke="black" stroke-width="3" fill="none" />
<text text-anchor="middle" x="812" y="55">100</text>
<line x1="812" y1="90" x2="552" y2="270" style="stroke:rgb(0,0,0);stroke-width:2" />
<circle cx="552" cy="310" r="40" stroke="black" stroke-width="3" fill="none" />
<text text-anchor="middle" x="552" y="315">20</text>
<line x1="552" y1="350" x2="492" y2="420" style="stroke:rgb(0,0,0);stroke-width:2" />
<rect x="452" y="420" width="80" height="80" style="fill:none; stroke:black; stroke-width:3"/><text text-anchor="middle" x="492" y="455">20</text>
<text text-anchor="middle" x="492" y="470">veinte</text>
<line x1="552" y1="350" x2="612" y2="420" style="stroke:rgb(0,0,0);stroke-width:2" />
<rect x="572" y="420" width="80" height="80" style="fill:none; stroke:black; stroke-width:3"/><text text-anchor="middle" x="612" y="455">100</text>
<text text-anchor="middle" x="612" y="470">cien</text>
<line x1="812" y1="90" x2="1072" y2="270" style="stroke:rgb(0,0,0);stroke-width:2" />
<circle cx="1072" cy="310" r="40" stroke="black" stroke-width="3" fill="red" />
<circle cx="1072" cy="310" r="30" stroke="black" stroke-width="3" fill="none" />
<text text-anchor="middle" x="1072" y="315">300</text>
<line x1="1072" y1="350" x2="922" y2="420" style="stroke:rgb(0,0,0);stroke-width:2" />
<circle cx="922" cy="460" r="40" stroke="black" stroke-width="3" fill="none" />
<text text-anchor="middle" x="922" y="465">160</text>
<line x1="922" y1="500" x2="862" y2="570" style="stroke:rgb(0,0,0);stroke-width:2" />
<rect x="822" y="570" width="80" height="80" style="fill:none; stroke:black; stroke-width:3"/><text text-anchor="middle" x="862" y="605">160</text>
<text text-anchor="middle" x="862" y="620">cientsec</text>
<line x1="922" y1="500" x2="982" y2="570" style="stroke:rgb(0,0,0);stroke-width:2" />
<rect x="942" y="570" width="80" height="80" style="fill:none; stroke:black; stroke-width:3"/><text text-anchor="middle" x="982" y="605">300</text>
<text text-anchor="middle" x="982" y="620">trescientos</text>
<line x1="1072" y1="350" x2="1222" y2="420" style="stroke:rgb(0,0,0);stroke-width:2" />
<circle cx="1222" cy="460" r="40" stroke="black" stroke-width="3" fill="none" />
<text text-anchor="middle" x="1222" y="465">350</text>
<line x1="1222" y1="500" x2="1162" y2="570" style="stroke:rgb(0,0,0);stroke-width:2" />
<rect x="1122" y="570" width="80" height="80" style="fill:none; stroke:black; stroke-width:3"/><text text-anchor="middle" x="1162" y="605">350</text>
<text text-anchor="middle" x="1162" y="620">trescinc</text>
<line x1="1222" y1="500" x2="1282" y2="570" style="stroke:rgb(0,0,0);stroke-width:2" />
<rect x="1242" y="570" width="80" height="80" style="fill:none; stroke:black; stroke-width:3"/><text text-anchor="middle" x="1282" y="605">500</text>
<text text-anchor="middle" x="1282" y="620">quinientos</text>
<text text-anchor="start" x="10" y="20">Paso 6: </text><text text-anchor="start" x="10" y="40">Insertando ( 500, quinientos )</text><text text-anchor="start" x="10" y="70">Rotación simple izquierda</text><text text-anchor="start" x="10" y="100">Recoloreo</text><text text-anchor="start" x="10" y="130">Color flip</text><text text-anchor="start" x="10" y="160">Inserción hoja</text></svg>