<?xml version='1.0' encoding='UTF-8' ?>
<svg xmlns='http://www.w3.org/2000/svg' version='1.1' width='1575' height='825px'>
<circle cx="787" cy="50" r="40" stroke="black" stroke-width="3" fill="none" />
<text text-anchor="middle" x="787" y="55">100</text>
<line x1="787" y1="90" x2="547" y2="250" style="stroke:rgb(0,0,0);stroke-width:2" />
<circle cx="547" cy="290" r="40" stroke="black" stroke-width="3" fill="none" />
<text text-anchor="middle" x="547" y="295">20</text>
<line x1="547" y1="330" x2="487" y2="400" style="stroke:rgb(0,0,0);stroke-width:2" />
<rect x="447" y="400" width="80" height="80" style="fill:none; stroke:black; stroke-width:3"/><text text-anchor="middle" x="487" y="435">20</text>
<text text-anchor="middle" x="487" y="450">veinte</text>
<line x1="547" y1="330" x2="607" y2="400" style="stroke:rgb(0,0,0);stroke-width:2" />
<rect x="567" y="400" width="80" height="80" style="fill:none; stroke:black; stroke-width:3"/><text text-anchor="middle" x="607" y="435">100</text>
<text text-anchor="middle" x="607" y="450">cien</text>
<line x1="787" y1="90" x2="1027" y2="250" style="stroke:rgb(0,0,0);stroke-width:2" />
<circle cx="1027" cy="290" r="40" stroke="black" stroke-width="3" fill="none" />
<text text-anchor="middle" x="1027" y="295">160</text>
<line x1="1027" y1="330" x2="967" y2="400" style="stroke:rgb(0,0,0);stroke-width:2" />
<rect x="927" y="400" width="80" height="80" style="fill:none; stroke:black; stroke-width:3"/><text text-anchor="middle" x="967" y="435">160</text>
<text text-anchor="middle" x="967" y="450">cientsec</text>
<line x1="1027" y1="330" x2="1177" y2="400" style="stroke:rgb(0,0,0);stroke-width:2" />
<circle cx="1177" cy="440" r="40" stroke="black" stroke-width="3" fill="red" />
<circle cx="1177" cy="440" r="30" stroke="black" stroke-width="3" fill="none" />
<text text-anchor="middle" x="1177" y="445">300</text>
<line x1="1177" y1="480" x2="1117" y2="550" style="stroke:rgb(0,0,0);stroke-width:2" />
<rect x="1077" y="550" width="80" height="80" style="fill:none; stroke:black; stroke-width:3"/><text text-anchor="middle" x="1117" y="585">300</text>
<text text-anchor="middle" x="1117" y="600">trescientos</text>
<line x1="1177" y1="480" x2="1237" y2="550" style="stroke:rgb(0,0,0);stroke-width:2" />
<rect x="1197" y="550" width="80" height="80" style="fill:none; stroke:black; stroke-width:3"/><text text-anchor="middle" x="1237" y="585">350</text>
<text text-anchor="middle" x="1237" y="600">trescinc</text>
<text text-anchor="start" x="10" y="20">Paso 5: </text><text text-anchor="start" x="10" y="40">Insertando ( 350, trescinc )</text><text text-anchor="start" x="10" y="70">Cambio color raíz</text><text text-anchor="start" x="10" y="100">Inserción hoja</text></svg>